<svg width="32.000000" height="32.000000" viewBox="0 0 32 32" fill="none" xmlns="http://www.w3.org/2000/svg" xmlns:xlink="http://www.w3.org/1999/xlink">
	<desc>
			Created with Pixso.
	</desc>
	<defs>
		<clipPath id="clip4_935">
			<rect id="63337525695d8b342eb4424d_Dribble%20Icon.svg" width="32.000000" height="32.000000" transform="translate(-0.190308 -0.701172)" fill="white" fill-opacity="0"/>
		</clipPath>
		<clipPath id="clip4_934">
			<rect id="63337525695d8b342eb4424d_Dribble%20Icon.svg fill" width="32.000000" height="32.000000" transform="translate(-0.190308 -0.701172)" fill="white" fill-opacity="0"/>
		</clipPath>
	</defs>
	<g clip-path="url(#clip4_934)">
		<g clip-path="url(#clip4_935)">
			<mask id="mask4_939" mask-type="alpha" maskUnits="userSpaceOnUse" x="-0.190308" y="-0.701172" width="31.746033" height="31.746094">
				<path id="Vector" d="M-0.2 -0.71L31.55 -0.71L31.55 31.04L-0.2 31.04L-0.2 -0.71Z" fill="#000000" fill-opacity="1.000000" fill-rule="evenodd"/>
			</mask>
			<g mask="url(#mask4_939)">
				<path id="Vector" d="M15.68 0.35C23.86 0.35 30.48 6.97 30.48 15.14C30.48 23.31 23.86 29.95 15.68 29.95C7.49 29.95 0.87 23.33 0.87 15.16C0.87 6.98 7.49 0.35 15.68 0.35Z" fill="#E74D89" fill-opacity="1.000000" fill-rule="evenodd"/>
				<path id="Vector" d="M15.68 31C6.92 31 -0.2 23.9 -0.2 15.15C-0.2 6.4 6.92 -0.71 15.68 -0.71C24.43 -0.71 31.55 6.4 31.55 15.14C31.55 23.88 24.43 31 15.68 31ZM29.06 17.31C28.6 17.16 24.87 16.06 20.61 16.73C22.39 21.59 23.11 25.56 23.24 26.38C26.29 24.33 28.46 21.08 29.06 17.31ZM20.97 27.63C20.77 26.44 19.98 22.3 18.08 17.36C18.06 17.37 18.02 17.39 18 17.39C10.35 20.05 7.6 25.35 7.36 25.84C9.65 27.63 12.54 28.7 15.68 28.7C17.55 28.71 19.35 28.32 20.97 27.63ZM5.61 24.22C5.92 23.7 9.64 17.55 16.63 15.28C16.81 15.22 16.99 15.17 17.17 15.12C16.83 14.35 16.46 13.58 16.06 12.82C9.29 14.84 2.72 14.76 2.12 14.75C2.12 14.88 2.11 15.02 2.11 15.15C2.12 18.64 3.44 21.81 5.61 24.22ZM2.41 12.39C3.02 12.4 8.6 12.43 14.95 10.74C12.7 6.75 10.27 3.4 9.92 2.91C6.12 4.7 3.29 8.2 2.41 12.39ZM12.5 2C12.88 2.49 15.34 5.84 17.56 9.92C22.39 8.11 24.42 5.38 24.67 5.04C22.28 2.91 19.13 1.62 15.68 1.62C14.59 1.62 13.52 1.76 12.5 2ZM26.17 6.6C25.88 6.98 23.61 9.9 18.6 11.94C18.91 12.59 19.22 13.25 19.51 13.9C19.61 14.14 19.71 14.37 19.81 14.6C24.32 14.03 28.8 14.94 29.24 15.03C29.21 11.84 28.07 8.9 26.17 6.6Z" fill="#B2215A" fill-opacity="1.000000" fill-rule="evenodd"/>
			</g>
		</g>
	</g>
</svg>
