<svg width="32.000000" height="32.000000" viewBox="0 0 32 32" fill="none" xmlns="http://www.w3.org/2000/svg" xmlns:xlink="http://www.w3.org/1999/xlink">
	<desc>
			Created with Pixso.
	</desc>
	<defs>
		<clipPath id="clip4_1078">
			<rect id="63337525695d8b1e2eb44249_Facebook%20Icon.svg" width="32.000000" height="32.000000" transform="translate(-0.190308 -0.510742)" fill="white" fill-opacity="0"/>
		</clipPath>
		<clipPath id="clip4_1077">
			<rect id="63337525695d8b1e2eb44249_Facebook%20Icon.svg fill" width="32.000000" height="32.000000" transform="translate(-0.190308 -0.510742)" fill="white" fill-opacity="0"/>
		</clipPath>
	</defs>
	<g clip-path="url(#clip4_1077)">
		<g clip-path="url(#clip4_1078)">
			<path id="Vector" d="M31.8 15.48C31.8 6.65 24.64 -0.52 15.8 -0.52C6.97 -0.52 -0.2 6.65 -0.2 15.48C-0.2 23.47 5.66 30.09 13.3 31.29L13.3 20.11L9.24 20.11L9.24 15.48L13.3 15.48L13.3 11.96C13.3 7.95 15.69 5.73 19.35 5.73C21.1 5.73 22.93 6.05 22.93 6.05L22.93 9.98L20.91 9.98C18.92 9.98 18.3 11.22 18.3 12.48L18.3 15.48L22.74 15.48L22.03 20.11L18.3 20.11L18.3 31.29C25.95 30.09 31.8 23.47 31.8 15.48Z" fill="#1877F2" fill-opacity="1.000000" fill-rule="evenodd"/>
			<path id="Vector" d="M22.03 20.11L22.74 15.48L18.3 15.48L18.3 12.48C18.3 11.22 18.92 9.98 20.91 9.98L22.93 9.98L22.93 6.05C22.93 6.05 21.1 5.73 19.35 5.73C15.69 5.73 13.3 7.95 13.3 11.96L13.3 15.48L9.24 15.48L9.24 20.11L13.3 20.11L13.3 31.29C14.12 31.42 14.95 31.48 15.8 31.48C16.66 31.48 17.49 31.42 18.3 31.29L18.3 20.11L22.03 20.11Z" fill="#FFFFFF" fill-opacity="1.000000" fill-rule="evenodd"/>
		</g>
	</g>
</svg>
