<svg class="banner__brand__img" width="97.000000" height="28.000000" viewBox="0 0 97 28" fill="none" xmlns="http://www.w3.org/2000/svg" xmlns:xlink="http://www.w3.org/1999/xlink">
	<desc>
			Created with Pixso.
	</desc>
	<defs/>
	<path id="Vector" d="M64.18 9.17C68 9.17 71.34 12.11 71.34 16.08C71.34 20 68.26 23 64.67 23C63.08 23 61.97 22.54 60.9 21.49L60.9 27.58L57.69 27.58L57.69 16.29C57.69 12.06 60.75 9.17 64.18 9.17ZM62.67 0.4C63.47 -0.4 64.68 -0.64 65.72 -0.2C66.77 0.23 67.45 1.26 67.44 2.39C67.44 2.62 67.41 2.86 67.34 3.08L76.19 9.97C77.16 9.2 78.31 8.69 79.53 8.5L79.53 5.28C78.66 4.87 78.11 4 78.1 3.04L78.1 2.96C78.1 1.59 79.21 0.48 80.59 0.48L80.66 0.48C82.03 0.48 83.14 1.59 83.14 2.96L83.14 3.04C83.14 4 82.58 4.87 81.71 5.28L81.71 8.5C84.63 8.95 86.97 11.16 87.57 14.05C88.17 16.95 86.91 19.91 84.4 21.48C81.9 23.05 78.68 22.89 76.34 21.09L73.72 23.71C73.79 23.92 73.82 24.15 73.83 24.37C73.83 25.64 72.8 26.67 71.53 26.67C70.26 26.67 69.23 25.64 69.23 24.37C69.23 23.1 70.26 22.07 71.53 22.07C71.75 22.08 71.98 22.11 72.19 22.18L74.84 19.53C73.17 17.16 73.13 14 74.73 11.58L66.02 4.81C65.6 5.05 65.13 5.18 64.64 5.18C63.51 5.18 62.49 4.5 62.06 3.45C61.63 2.4 61.87 1.2 62.67 0.4ZM32.71 4.76L32.71 10.85C33.78 9.8 34.89 9.33 36.48 9.33C40.06 9.34 43.15 12.33 43.15 16.25C43.15 20.22 39.8 23.16 35.99 23.16C32.56 23.16 29.5 20.27 29.5 16.04L29.5 4.76L32.71 4.76ZM18.69 9.24L18.69 17.17C18.69 18.71 19.94 19.96 21.48 19.96C23.03 19.96 24.28 18.71 24.28 17.17L24.28 9.24L27.47 9.24L27.47 17.17C27.47 20.48 24.79 23.16 21.48 23.16C18.17 23.16 15.48 20.48 15.48 17.17L15.48 9.24L18.69 9.24ZM92.96 6.03L92.96 9.75L95.91 9.75L95.91 12.56L92.96 12.56L92.96 18.12C92.96 19.37 93.5 20.19 95.39 20.19C95.75 20.19 96.16 20.16 96.52 20.14L95.73 23.06C95.31 23.13 94.88 23.17 94.45 23.16C91.71 23.16 89.71 21.7 89.71 18.81L89.71 7.49L92.96 6.03ZM50.49 4.65C52.23 4.65 54.35 5.63 55.4 7.04L53.3 9.52C52.48 8.64 51.23 7.92 50.28 7.92C49.1 7.92 48.03 8.43 48.03 10.06C48.02 13.07 55.68 10.91 55.68 17.87C55.68 21.09 53.02 23.15 49.72 23.15C47.52 23.15 45.68 22.22 44.19 20.39L46.52 17.97C47.39 18.95 48 19.88 49.9 19.88C51.1 19.88 52.15 18.92 52.15 17.84C52.15 14.34 44.49 16.32 44.49 10.06C44.49 6.68 47.01 4.65 50.49 4.65ZM2.96 4.65L2.96 12.4L10.08 12.4L10.08 4.65L13.46 4.65L13.46 23.15L10.08 23.15L10.08 15.65L2.96 15.65L2.96 23.15L-0.41 23.15L-0.41 4.65L2.96 4.65ZM36.46 12.65C35.16 12.65 33.96 13.34 33.3 14.47C32.65 15.6 32.65 16.99 33.3 18.11C33.96 19.24 35.16 19.93 36.46 19.93C38.47 19.93 40.1 18.3 40.1 16.29C40.1 14.28 38.47 12.65 36.46 12.65ZM64.66 12.4C62.65 12.4 61.01 14.03 61.01 16.04C61.01 18.05 62.65 19.69 64.66 19.69C66.67 19.69 68.3 18.05 68.3 16.04C68.3 14.03 66.67 12.4 64.66 12.4ZM80.63 11.86C79.31 11.83 78.07 12.51 77.4 13.64C76.73 14.78 76.73 16.19 77.4 17.33C78.07 18.46 79.31 19.15 80.63 19.11C82.58 19.04 84.13 17.44 84.12 15.48C84.12 13.53 82.58 11.93 80.63 11.86Z" fill-opacity="1.000000" fill-rule="evenodd"/>
</svg>
