<svg width="24.000000" height="24.000000" viewBox="0 0 24 24" fill="none" xmlns="http://www.w3.org/2000/svg" xmlns:xlink="http://www.w3.org/1999/xlink">
	<desc>
			Created with Pixso.
	</desc>
	<defs>
		<clipPath id="clip4_966">
			<rect id="63337525695d8b2585b442b4_Location%20Icon.svg" width="24.000000" height="24.000000" transform="translate(-0.190308 -0.510742)" fill="white" fill-opacity="0"/>
		</clipPath>
		<clipPath id="clip4_965">
			<rect id="63337525695d8b2585b442b4_Location%20Icon.svg fill" width="24.000000" height="24.000000" transform="translate(-0.190308 -0.510742)" fill="white" fill-opacity="0"/>
		</clipPath>
	</defs>
	<g clip-path="url(#clip4_965)">
		<g clip-path="url(#clip4_966)">
			<path id="Vector" d="M11.83 1.48L12.09 1.49C16.66 1.64 20.32 5.42 20.3 10.04L20.3 10.14C20.25 12.9 18.87 15.61 16.58 18.03C15.46 19.21 14.2 20.25 12.83 21.13L12.84 21.13L12.79 21.17C12.24 21.56 11.52 21.59 10.95 21.25L10.82 21.17L10.76 21.12L10.34 20.84C8.63 19.66 7.1 18.22 5.81 16.58L5.49 16.17C4.15 14.41 3.38 12.26 3.3 10.01L3.31 9.73C3.46 5.14 7.22 1.47 11.83 1.48ZM11.83 3L11.59 3C7.84 3.12 4.83 6.2 4.82 9.98L4.84 10.34C4.97 12.12 5.61 13.83 6.7 15.26C8.05 17.07 9.71 18.63 11.6 19.86L11.68 19.92C11.75 19.98 11.85 19.98 11.92 19.92L12.01 19.86C13.28 19.04 14.45 18.07 15.49 16.98C17.54 14.82 18.75 12.44 18.79 10.12L18.79 9.79C18.67 6.03 15.61 3.01 11.83 3ZM11.8 6.89C13.59 6.89 15.04 8.34 15.04 10.13C15.04 11.93 13.59 13.38 11.8 13.38C10.02 13.38 8.57 11.93 8.57 10.13C8.57 8.34 10.02 6.89 11.8 6.89ZM11.8 8.4C10.85 8.4 10.08 9.18 10.08 10.13C10.08 11.09 10.85 11.86 11.8 11.86C12.76 11.86 13.53 11.09 13.53 10.13C13.53 9.18 12.76 8.4 11.8 8.4Z" fill="#6D7D93" fill-opacity="1.000000" fill-rule="evenodd"/>
		</g>
	</g>
</svg>
