<svg width="32.000000" height="32.000000" viewBox="0 0 32 32" fill="none" xmlns="http://www.w3.org/2000/svg" xmlns:xlink="http://www.w3.org/1999/xlink">
	<desc>
			Created with Pixso.
	</desc>
	<defs>
		<clipPath id="clip4_1163">
			<rect id="63337525695d8b775fb4424c_PayPal%20Icon.svg" width="27.428572" height="32.000000" transform="translate(1.425415 -0.510742)" fill="white" fill-opacity="0"/>
		</clipPath>
		<clipPath id="clip4_1162">
			<rect id="63337525695d8b775fb4424c_PayPal%20Icon.svg fill" width="32.000000" height="32.000000" transform="translate(-0.860229 -0.510742)" fill="white" fill-opacity="0"/>
		</clipPath>
	</defs>
	<g clip-path="url(#clip4_1162)">
		<g clip-path="url(#clip4_1163)">
			<mask id="mask4_1169" mask-type="alpha" maskUnits="userSpaceOnUse" x="1.425415" y="-0.510742" width="27.125824" height="32.000000">
				<path id="Vector" d="M1.42 -0.52L28.55 -0.52L28.55 31.48L1.42 31.48L1.42 -0.52Z" fill="#000000" fill-opacity="1.000000" fill-rule="evenodd"/>
			</mask>
			<g mask="url(#mask4_1169)">
				<path id="Vector" d="M24.43 1.97C22.95 0.29 20.29 -0.43 16.87 -0.43L6.96 -0.43C6.62 -0.43 6.3 -0.31 6.04 -0.09C5.78 0.13 5.61 0.43 5.56 0.77L1.43 26.94C1.35 27.45 1.75 27.92 2.28 27.92L8.39 27.92L9.93 18.17L9.88 18.48C9.99 17.79 10.58 17.28 11.28 17.28L14.18 17.28C19.9 17.28 24.37 14.96 25.67 8.25C25.71 8.05 25.75 7.86 25.78 7.67C26.16 5.19 25.77 3.5 24.43 1.97Z" fill="#27346A" fill-opacity="1.000000" fill-rule="evenodd"/>
				<path id="Vector" d="M12.27 6.78C12.44 6.7 12.62 6.66 12.81 6.66L20.57 6.66C21.49 6.66 22.35 6.72 23.14 6.84C23.36 6.88 23.57 6.92 23.79 6.97C24.1 7.04 24.4 7.12 24.7 7.22C25.09 7.35 25.45 7.5 25.78 7.67C26.16 5.19 25.77 3.5 24.43 1.97C22.95 0.29 20.29 -0.43 16.87 -0.43L6.96 -0.43C6.26 -0.43 5.67 0.08 5.56 0.77L1.43 26.93C1.35 27.45 1.75 27.92 2.27 27.92L8.39 27.92L11.58 7.7C11.61 7.51 11.69 7.32 11.81 7.16C11.93 7 12.09 6.87 12.27 6.78Z" fill="#27346A" fill-opacity="1.000000" fill-rule="evenodd"/>
				<path id="Vector" d="M25.67 8.25C24.37 14.96 19.9 17.28 14.19 17.28L11.28 17.28C10.58 17.28 9.99 17.79 9.88 18.48L7.97 30.6C7.9 31.05 8.25 31.46 8.71 31.46L13.86 31.46C14.16 31.46 14.44 31.35 14.67 31.16C14.89 30.97 15.04 30.7 15.09 30.41L15.14 30.15L16.11 23.99L16.17 23.65C16.22 23.36 16.37 23.09 16.59 22.9C16.82 22.71 17.1 22.6 17.4 22.6L18.17 22.6C23.17 22.6 27.08 20.57 28.22 14.7C28.7 12.25 28.45 10.2 27.19 8.76C26.81 8.33 26.33 7.97 25.78 7.67C25.75 7.86 25.71 8.05 25.67 8.25Z" fill="#2790C3" fill-opacity="1.000000" fill-rule="evenodd"/>
				<path id="Vector" d="M24.41 7.13C24.2 7.07 24 7.01 23.79 6.97C23.58 6.92 23.36 6.88 23.14 6.84C22.35 6.72 21.5 6.66 20.57 6.66L12.81 6.66C12.62 6.66 12.44 6.7 12.27 6.78C12.09 6.87 11.93 7 11.81 7.16C11.69 7.32 11.61 7.51 11.58 7.7L9.93 18.17L9.88 18.48C9.99 17.79 10.58 17.28 11.28 17.28L14.19 17.28C19.9 17.28 24.37 14.96 25.68 8.25C25.71 8.05 25.75 7.86 25.78 7.67C25.45 7.5 25.09 7.35 24.7 7.22C24.6 7.19 24.51 7.16 24.41 7.13Z" fill="#1F264F" fill-opacity="1.000000" fill-rule="evenodd"/>
			</g>
		</g>
	</g>
</svg>
