<svg width="32.000000" height="32.000000" viewBox="0 0 32 32" fill="none" xmlns="http://www.w3.org/2000/svg" xmlns:xlink="http://www.w3.org/1999/xlink">
	<desc>
			Created with Pixso.
	</desc>
	<defs>
		<clipPath id="clip4_1294">
			<rect id="63337525695d8bb874b4424a_Slack%20Icon.svg" width="32.000000" height="32.000000" transform="translate(-0.190308 -0.831055)" fill="white" fill-opacity="0"/>
		</clipPath>
		<clipPath id="clip4_1293">
			<rect id="63337525695d8bb874b4424a_Slack%20Icon.svg fill" width="32.000000" height="32.000000" transform="translate(-0.190308 -0.831055)" fill="white" fill-opacity="0"/>
		</clipPath>
	</defs>
	<g clip-path="url(#clip4_1293)">
		<g clip-path="url(#clip4_1294)">
			<path id="Vector" d="M6.54 19.33C6.54 21.18 5.04 22.68 3.18 22.68C1.33 22.68 -0.17 21.18 -0.17 19.33C-0.17 17.47 1.33 15.98 3.18 15.98L6.53 15.98L6.54 19.33ZM8.21 19.33C8.21 17.47 9.71 15.98 11.56 15.98C13.42 15.98 14.92 17.47 14.92 19.33L14.92 27.71C14.92 29.56 13.42 31.06 11.56 31.06C9.71 31.06 8.21 29.56 8.21 27.71L8.21 19.33Z" fill="#E01E5A" fill-opacity="1.000000" fill-rule="evenodd"/>
			<path id="Vector" d="M11.56 5.87C9.71 5.87 8.21 4.37 8.21 2.52C8.21 0.66 9.71 -0.84 11.56 -0.84C13.42 -0.84 14.92 0.66 14.92 2.52L14.92 5.87L11.56 5.87ZM11.56 7.57C13.42 7.57 14.92 9.07 14.92 10.92C14.92 12.78 13.42 14.28 11.56 14.28L3.16 14.28C1.3 14.28 -0.2 12.78 -0.2 10.92C-0.2 9.07 1.3 7.57 3.16 7.57L11.56 7.57Z" fill="#36C5F0" fill-opacity="1.000000" fill-rule="evenodd"/>
			<path id="Vector" d="M25 10.92C25 9.07 26.5 7.57 28.35 7.57C30.2 7.57 31.7 9.07 31.7 10.92C31.7 12.78 30.2 14.28 28.35 14.28L25 14.28L25 10.92ZM23.32 10.92C23.32 12.78 21.82 14.28 19.97 14.28C18.12 14.28 16.62 12.78 16.62 10.92L16.62 2.52C16.62 0.66 18.12 -0.84 19.97 -0.84C21.82 -0.84 23.32 0.66 23.32 2.52L23.32 10.92Z" fill="#2EB67D" fill-opacity="1.000000" fill-rule="evenodd"/>
			<path id="Vector" d="M19.97 24.36C21.82 24.36 23.32 25.86 23.32 27.71C23.32 29.56 21.82 31.06 19.97 31.06C18.12 31.06 16.62 29.56 16.62 27.71L16.62 24.36L19.97 24.36ZM19.97 22.68C18.12 22.68 16.62 21.18 16.62 19.33C16.62 17.47 18.12 15.98 19.97 15.98L28.38 15.98C30.23 15.98 31.73 17.47 31.73 19.33C31.73 21.18 30.23 22.68 28.38 22.68L19.97 22.68Z" fill="#ECB22E" fill-opacity="1.000000" fill-rule="evenodd"/>
		</g>
	</g>
</svg>
