<svg class="banner__brand__img" width="95.000000" height="24.000000" viewBox="0 0 95 24" fill="none" xmlns="http://www.w3.org/2000/svg" xmlns:xlink="http://www.w3.org/1999/xlink">
	<desc>
			Created with Pixso.
	</desc>
	<defs>
		<clipPath id="clip4_1751">
			<rect id="63337525695d8b0585b4428b_Grey%20Logo%20Large%20(3).svg" width="95.000000" height="24.000000" transform="translate(-0.560303 -0.810547)" fill="white" fill-opacity="0"/>
		</clipPath>
		<clipPath id="clip4_1750">
			<rect id="63337525695d8b0585b4428b_Grey%20Logo%20Large%20(3).svg fill" width="95.000000" height="24.000000" transform="translate(-0.560303 -0.810547)" fill="white" fill-opacity="0"/>
		</clipPath>
	</defs>
	<g clip-path="url(#clip4_1750)">
		<g clip-path="url(#clip4_1751)">
			<mask id="mask4_1754" mask-type="alpha" maskUnits="userSpaceOnUse" x="-0.127686" y="-0.810547" width="94.300903" height="24.000000">
				<path id="Vector" d="M-0.13 -0.82L94.17 -0.82L94.17 23.18L-0.13 23.18L-0.13 -0.82Z" fill="#000000" fill-opacity="1.000000" fill-rule="evenodd"/>
			</mask>
			<g mask="url(#mask4_1754)">
				<path id="Vector" d="M30.07 18.03L31.25 15.3C32.51 16.24 34.2 16.74 35.87 16.74C37.09 16.74 37.87 16.27 37.87 15.54C37.85 13.54 30.51 15.11 30.45 10.08C30.43 7.52 32.7 5.55 35.92 5.55C37.83 5.55 39.75 6.02 41.1 7.1L40.01 9.88C38.76 9.09 37.21 8.51 35.73 8.51C34.73 8.51 34.07 8.99 34.07 9.6C34.09 11.57 41.49 10.49 41.56 15.3C41.56 17.91 39.35 19.75 36.17 19.75C33.84 19.75 31.7 19.2 30.07 18.03L30.07 18.03ZM75.12 14.31C74.75 14.97 74.18 15.48 73.49 15.77C72.8 16.06 72.03 16.11 71.31 15.92C70.59 15.73 69.95 15.31 69.49 14.71C69.03 14.12 68.79 13.4 68.79 12.65C68.79 11.9 69.03 11.17 69.49 10.58C69.95 9.99 70.59 9.56 71.31 9.37C72.03 9.18 72.8 9.24 73.49 9.53C74.18 9.82 74.75 10.33 75.12 10.98L78.36 9.18C77.59 7.81 76.39 6.73 74.94 6.11C73.5 5.49 71.88 5.37 70.36 5.77C68.84 6.16 67.49 7.05 66.53 8.3C65.57 9.54 65.05 11.07 65.05 12.65C65.05 14.22 65.57 15.75 66.53 16.99C67.49 18.24 68.84 19.13 70.36 19.52C71.88 19.92 73.5 19.8 74.94 19.18C76.39 18.56 77.59 17.48 78.36 16.11L75.12 14.31ZM43.19 -0.34L47.24 -0.34L47.24 19.48L43.19 19.48L43.19 -0.34ZM79.95 -0.34L79.95 19.48L84 19.48L84 13.54L88.81 19.48L94 19.48L87.88 12.42L93.54 5.83L88.58 5.83L84 11.3L84 -0.34L79.95 -0.34ZM59.29 14.35C58.94 14.87 58.47 15.3 57.92 15.6C57.37 15.89 56.75 16.04 56.13 16.04C55.23 16.04 54.37 15.68 53.73 15.04C53.1 14.41 52.74 13.55 52.74 12.65C52.74 11.75 53.1 10.89 53.73 10.25C54.37 9.62 55.23 9.26 56.13 9.26C57.49 9.26 58.7 10.01 59.29 11L59.29 14.35ZM59.29 5.83L59.29 7.44C58.63 6.32 56.98 5.54 55.25 5.54C51.69 5.54 48.89 8.69 48.89 12.63C48.89 16.57 51.69 19.75 55.25 19.75C56.97 19.75 58.63 18.97 59.29 17.86L59.29 19.46L63.34 19.46L63.34 5.83L59.29 5.83ZM5.02 14.33C5.02 14.83 4.87 15.31 4.59 15.72C4.32 16.13 3.93 16.45 3.47 16.64C3.01 16.83 2.51 16.88 2.03 16.79C1.54 16.69 1.1 16.45 0.75 16.1C0.4 15.75 0.16 15.3 0.06 14.82C-0.03 14.33 0.02 13.83 0.21 13.38C0.4 12.92 0.72 12.53 1.13 12.25C1.54 11.98 2.02 11.83 2.52 11.83L5.02 11.83L5.02 14.33ZM6.27 14.33C6.26 14 6.31 13.67 6.44 13.35C6.56 13.04 6.74 12.76 6.97 12.52C7.2 12.28 7.48 12.09 7.79 11.96C8.1 11.83 8.43 11.76 8.77 11.76C9.1 11.76 9.43 11.83 9.74 11.96C10.05 12.09 10.33 12.28 10.56 12.52C10.79 12.76 10.97 13.04 11.09 13.35C11.22 13.67 11.27 14 11.26 14.33L11.26 20.58C11.24 21.23 10.97 21.85 10.51 22.3C10.04 22.75 9.42 23.01 8.77 23.01C8.11 23.01 7.49 22.75 7.02 22.3C6.56 21.85 6.29 21.23 6.27 20.58L6.27 14.33ZM8.77 4.29C8.27 4.29 7.79 4.15 7.38 3.87C6.97 3.6 6.65 3.21 6.46 2.75C6.27 2.29 6.22 1.79 6.32 1.3C6.41 0.82 6.65 0.37 7 0.03C7.35 -0.32 7.8 -0.56 8.28 -0.66C8.77 -0.75 9.27 -0.7 9.73 -0.51C10.18 -0.33 10.57 0 10.85 0.41C11.12 0.82 11.27 1.3 11.27 1.8L11.27 4.29L8.77 4.29L8.77 4.29ZM8.77 5.57C9.1 5.56 9.43 5.62 9.74 5.74C10.06 5.86 10.34 6.04 10.58 6.27C10.82 6.51 11.01 6.79 11.14 7.09C11.27 7.4 11.34 7.73 11.34 8.07C11.34 8.4 11.27 8.73 11.14 9.04C11.01 9.35 10.82 9.63 10.58 9.86C10.34 10.09 10.06 10.28 9.74 10.4C9.43 10.52 9.1 10.58 8.77 10.57L2.5 10.57C2.17 10.58 1.83 10.52 1.52 10.4C1.21 10.28 0.93 10.09 0.69 9.86C0.45 9.63 0.26 9.35 0.13 9.04C0 8.73 -0.07 8.4 -0.07 8.07C-0.07 7.73 0 7.4 0.13 7.09C0.26 6.79 0.45 6.51 0.69 6.27C0.93 6.04 1.21 5.86 1.52 5.74C1.83 5.62 2.17 5.56 2.5 5.57L8.77 5.57ZM18.78 8.07C18.78 7.57 18.93 7.09 19.2 6.68C19.48 6.27 19.87 5.95 20.33 5.76C20.78 5.57 21.29 5.52 21.77 5.61C22.26 5.71 22.7 5.95 23.05 6.3C23.4 6.65 23.64 7.09 23.73 7.58C23.83 8.06 23.78 8.57 23.59 9.02C23.4 9.48 23.08 9.87 22.67 10.15C22.26 10.42 21.77 10.57 21.28 10.57L18.78 10.57L18.78 8.07L18.78 8.07ZM17.53 8.07C17.54 8.4 17.48 8.73 17.36 9.04C17.24 9.36 17.06 9.64 16.83 9.88C16.59 10.12 16.31 10.31 16.01 10.44C15.7 10.57 15.37 10.64 15.03 10.64C14.7 10.64 14.37 10.57 14.06 10.44C13.75 10.31 13.47 10.12 13.24 9.88C13.01 9.64 12.82 9.36 12.7 9.04C12.58 8.73 12.52 8.4 12.53 8.07L12.53 1.8C12.52 1.46 12.58 1.13 12.7 0.82C12.82 0.51 13.01 0.22 13.24 -0.02C13.47 -0.26 13.75 -0.45 14.06 -0.58C14.37 -0.71 14.7 -0.78 15.03 -0.78C15.37 -0.78 15.7 -0.71 16.01 -0.58C16.31 -0.45 16.59 -0.26 16.83 -0.02C17.06 0.22 17.24 0.51 17.36 0.82C17.48 1.13 17.54 1.46 17.53 1.8L17.53 8.07ZM15.04 18.08C15.53 18.08 16.01 18.23 16.42 18.5C16.84 18.78 17.16 19.17 17.35 19.63C17.53 20.08 17.58 20.59 17.49 21.07C17.39 21.56 17.15 22 16.8 22.35C16.45 22.7 16.01 22.94 15.52 23.03C15.04 23.13 14.53 23.08 14.08 22.89C13.62 22.7 13.23 22.38 12.96 21.97C12.68 21.56 12.54 21.07 12.54 20.58L12.54 18.08L15.04 18.08ZM15.04 16.83C14.7 16.84 14.37 16.78 14.06 16.66C13.75 16.54 13.46 16.36 13.22 16.13C12.98 15.89 12.79 15.61 12.66 15.31C12.53 15 12.46 14.67 12.46 14.33C12.46 14 12.53 13.67 12.66 13.36C12.79 13.05 12.98 12.77 13.22 12.54C13.46 12.31 13.75 12.12 14.06 12C14.37 11.88 14.7 11.82 15.04 11.83L21.31 11.83C21.96 11.85 22.57 12.12 23.03 12.59C23.48 13.06 23.73 13.68 23.73 14.33C23.73 14.98 23.48 15.61 23.03 16.07C22.57 16.54 21.96 16.81 21.31 16.83L15.04 16.83Z" fill-opacity="1.000000" fill-rule="evenodd"/>
			</g>
		</g>
	</g>
</svg>
