<svg width="32.000000" height="32.000000" viewBox="0 0 32 32" fill="none" xmlns="http://www.w3.org/2000/svg" xmlns:xlink="http://www.w3.org/1999/xlink">
	<desc>
			Created with Pixso.
	</desc>
	<defs>
		<clipPath id="clip4_1121">
			<rect id="63337525695d8b6942b4424b_Spotify%20Icon.svg" width="32.000000" height="32.000000" transform="translate(-0.530273 -0.510742)" fill="white" fill-opacity="0"/>
		</clipPath>
		<clipPath id="clip4_1120">
			<rect id="63337525695d8b6942b4424b_Spotify%20Icon.svg fill" width="32.000000" height="32.000000" transform="translate(-0.530273 -0.510742)" fill="white" fill-opacity="0"/>
		</clipPath>
	</defs>
	<g clip-path="url(#clip4_1120)">
		<g clip-path="url(#clip4_1121)">
			<path id="Vector" d="M15.46 -0.46C6.65 -0.46 -0.49 6.68 -0.49 15.49C-0.49 24.3 6.65 31.44 15.46 31.44C24.27 31.44 31.42 24.3 31.42 15.49C31.42 6.68 24.27 -0.46 15.46 -0.46ZM22.78 22.54C22.49 23.01 21.88 23.16 21.41 22.87C17.67 20.58 12.95 20.07 7.4 21.33C6.86 21.46 6.33 21.12 6.21 20.59C6.09 20.05 6.42 19.52 6.96 19.4C13.03 18.01 18.24 18.61 22.45 21.17C22.92 21.46 23.07 22.07 22.78 22.54ZM24.73 18.2C24.37 18.79 23.61 18.97 23.02 18.61C18.73 15.97 12.2 15.21 7.13 16.75C6.47 16.95 5.77 16.58 5.57 15.92C5.38 15.26 5.75 14.57 6.4 14.37C12.2 12.61 19.4 13.46 24.32 16.49C24.91 16.85 25.09 17.62 24.73 18.2ZM24.9 13.68C19.76 10.62 11.28 10.34 6.37 11.83C5.58 12.07 4.75 11.63 4.51 10.84C4.27 10.05 4.71 9.22 5.5 8.98C11.14 7.27 20.5 7.6 26.42 11.11C27.13 11.53 27.36 12.45 26.94 13.15C26.52 13.86 25.61 14.1 24.9 13.68Z" fill="#1ED760" fill-opacity="1.000000" fill-rule="evenodd"/>
		</g>
	</g>
</svg>
