<svg width="84.000000" height="40.000000" viewBox="0 0 84 40" fill="none" xmlns="http://www.w3.org/2000/svg" xmlns:xlink="http://www.w3.org/1999/xlink">
	<desc>
			Created with Pixso.
	</desc>
	<defs>
		<clipPath id="clip4_1734">
			<rect id="63337525695d8b464eb4428d_Grey%20Logo%20Large%20(4).svg" width="84.000000" height="40.000000" transform="translate(-0.060303 -0.220703)" fill="white" fill-opacity="0"/>
		</clipPath>
		<clipPath id="clip4_1733">
			<rect id="63337525695d8b464eb4428d_Grey%20Logo%20Large%20(4).svg fill" width="84.000000" height="40.000000" transform="translate(-0.060303 -0.220703)" fill="white" fill-opacity="0"/>
		</clipPath>
	</defs>
	<g clip-path="url(#clip4_1733)">
		<g clip-path="url(#clip4_1734)">
			<path id="Vector" d="M51.5 30.91C46.78 34.4 39.94 36.25 34.05 36.25C26.18 36.29 18.58 33.38 12.73 28.11C12.29 27.71 12.69 27.16 13.22 27.47C19.71 31.19 27.07 33.14 34.55 33.14C40.14 33.11 45.67 31.98 50.82 29.8C51.62 29.47 52.29 30.33 51.51 30.91L51.5 30.91Z" fill="#6D7D93" fill-opacity="1.000000" fill-rule="evenodd"/>
			<path id="Vector" d="M53.47 28.67C54.07 29.45 52.8 32.63 52.23 34.05C52.06 34.48 52.43 34.66 52.81 34.33C55.35 32.21 56 27.78 55.48 27.13C54.97 26.49 50.54 25.95 47.84 27.85C47.43 28.14 47.51 28.54 47.96 28.49C49.48 28.31 52.86 27.9 53.47 28.67ZM48.06 14.44C48.06 14.5 48.08 14.57 48.1 14.62C48.12 14.68 48.16 14.73 48.2 14.78C48.25 14.82 48.3 14.85 48.36 14.87C48.42 14.9 48.48 14.91 48.54 14.9L52.86 14.9L47.9 22.03C47.67 22.41 47.57 22.85 47.59 23.29L47.59 25.16C47.59 25.43 47.89 25.74 48.18 25.59C49.53 24.89 51.03 24.53 52.55 24.53C54.07 24.53 55.56 24.89 56.91 25.59C57.22 25.75 57.52 25.44 57.52 25.17L57.52 23.2C57.52 23.06 57.47 22.91 57.4 22.79C57.32 22.66 57.21 22.55 57.08 22.48C55.63 21.74 54 21.39 52.37 21.48L56.65 15.37C57.05 14.82 57.27 14.48 57.27 14.21L57.27 12.6C57.27 12.54 57.26 12.48 57.23 12.42C57.21 12.37 57.18 12.31 57.13 12.27C57.09 12.23 57.03 12.19 56.98 12.17C56.92 12.15 56.86 12.14 56.8 12.14L48.53 12.14C48.47 12.14 48.41 12.15 48.35 12.17C48.29 12.19 48.24 12.23 48.2 12.27C48.16 12.32 48.12 12.37 48.1 12.42C48.07 12.48 48.06 12.54 48.06 12.6L48.06 14.44ZM17.93 25.96C17.99 25.96 18.05 25.95 18.11 25.93C18.17 25.91 18.22 25.87 18.26 25.83C18.31 25.79 18.34 25.74 18.37 25.68C18.39 25.62 18.41 25.56 18.41 25.5L18.41 18.66C18.41 17.16 18.34 15.11 20.15 15.11C21.96 15.11 21.7 17.22 21.7 18.66L21.7 25.5C21.7 25.62 21.74 25.74 21.83 25.82C21.91 25.91 22.03 25.96 22.15 25.96L24.67 25.96C24.73 25.96 24.79 25.95 24.85 25.93C24.91 25.91 24.96 25.87 25.01 25.83C25.05 25.79 25.09 25.74 25.11 25.68C25.14 25.62 25.15 25.56 25.15 25.5L25.15 18.66C25.15 17.92 25.13 16.84 25.39 16.19C25.5 15.89 25.71 15.62 25.98 15.43C26.24 15.25 26.56 15.14 26.89 15.13C27.62 15.13 28.18 15.37 28.37 16.24C28.49 16.76 28.44 18.12 28.44 18.66L28.44 25.5C28.44 25.62 28.49 25.74 28.57 25.82C28.66 25.91 28.77 25.96 28.89 25.96L31.4 25.96C31.52 25.96 31.65 25.92 31.74 25.83C31.83 25.74 31.88 25.62 31.89 25.5L31.89 17.36C31.89 15.97 32.05 14.39 31.25 13.31C30.84 12.8 30.31 12.4 29.7 12.16C29.09 11.92 28.42 11.85 27.77 11.94C27.13 12.04 26.52 12.31 26.01 12.72C25.5 13.14 25.1 13.68 24.87 14.29C24.16 12.66 23.18 11.9 21.61 11.9C20.03 11.9 18.91 12.66 18.3 14.29L18.25 14.29L18.25 12.62C18.24 12.5 18.19 12.4 18.1 12.32C18.02 12.24 17.91 12.19 17.79 12.19L15.46 12.19C15.33 12.18 15.21 12.23 15.12 12.32C15.03 12.41 14.98 12.53 14.97 12.65L14.97 25.54C14.98 25.65 15.03 25.76 15.12 25.83C15.2 25.91 15.31 25.96 15.42 25.96L17.93 25.96L17.93 25.96ZM64.38 11.9C60.75 11.9 58.72 15.02 58.72 19.04C58.72 23.06 60.72 26.23 64.38 26.23C67.9 26.23 70.13 23.11 70.13 19.17C70.13 15.11 68.11 11.9 64.38 11.9ZM64.38 23.56C62.41 23.56 62.43 20.2 62.43 18.62C62.43 17.04 62.55 14.52 64.41 14.52C65.21 14.52 65.76 14.87 66.05 15.77C66.34 16.89 66.47 18.04 66.43 19.19C66.43 20.86 66.33 23.57 64.38 23.57L64.38 23.56ZM74.97 25.96C75.09 25.96 75.22 25.92 75.31 25.83C75.4 25.74 75.45 25.62 75.46 25.5L75.46 18.55C75.41 17.72 75.55 16.88 75.86 16.11C75.98 15.81 76.18 15.56 76.43 15.38C76.69 15.2 77 15.09 77.31 15.08C79.05 15.08 78.89 17.14 78.89 18.55L78.89 25.55C78.9 25.66 78.95 25.76 79.03 25.84C79.12 25.91 79.22 25.96 79.33 25.96L81.86 25.96C81.97 25.96 82.08 25.92 82.17 25.85C82.26 25.77 82.32 25.67 82.34 25.55L82.34 17.44C82.34 16.19 82.34 14.44 81.67 13.42C81.36 12.94 80.92 12.54 80.41 12.27C79.89 12 79.31 11.88 78.74 11.9C77 11.9 76.01 12.74 75.31 14.51L75.26 14.51L75.26 12.53C75.24 12.43 75.18 12.34 75.1 12.28C75.02 12.21 74.92 12.17 74.81 12.17L72.48 12.17C72.36 12.17 72.25 12.21 72.16 12.29C72.07 12.37 72.02 12.47 72 12.59L72 25.5C72 25.62 72.05 25.74 72.13 25.82C72.22 25.91 72.33 25.96 72.45 25.96L74.96 25.96L74.97 25.96ZM45.96 23.6C45.5 22.96 45.01 22.45 45.01 21.26L45.01 17.35C45.01 15.69 45.12 14.17 43.9 13.02C42.93 12.11 41.34 11.77 40.12 11.77C37.72 11.77 35.05 12.67 34.49 15.62C34.48 15.68 34.48 15.75 34.49 15.8C34.51 15.86 34.53 15.92 34.57 15.97C34.6 16.02 34.65 16.06 34.7 16.09C34.75 16.12 34.81 16.14 34.87 16.15L37.31 16.41C37.42 16.39 37.52 16.34 37.6 16.25C37.68 16.17 37.73 16.06 37.74 15.95C37.95 14.93 38.8 14.44 39.76 14.44C40.03 14.43 40.3 14.48 40.55 14.6C40.8 14.72 41.01 14.89 41.17 15.11C41.53 15.62 41.48 16.33 41.48 16.93L41.48 17.26C40.02 17.43 38.12 17.53 36.75 18.13C35.94 18.46 35.25 19.03 34.77 19.77C34.29 20.5 34.05 21.37 34.09 22.24C34.09 24.85 35.73 26.16 37.84 26.16C39.64 26.16 40.61 25.74 41.99 24.33C42.37 24.97 42.85 25.54 43.43 26C43.52 26.05 43.63 26.08 43.74 26.07C43.84 26.06 43.94 26.01 44.03 25.94C44.53 25.49 45.44 24.7 45.95 24.28C46 24.23 46.03 24.18 46.06 24.12C46.08 24.06 46.1 24 46.1 23.94C46.1 23.87 46.09 23.81 46.06 23.75C46.04 23.7 46 23.64 45.96 23.6ZM41.48 19.8C41.48 20.78 41.5 21.59 41.01 22.47C40.85 22.8 40.6 23.08 40.29 23.28C39.99 23.48 39.63 23.59 39.27 23.61C38.3 23.61 37.74 22.87 37.74 21.79C37.74 19.65 39.66 19.26 41.48 19.26L41.48 19.8ZM13 23.6C12.54 22.96 12.05 22.45 12.05 21.26L12.05 17.35C12.05 15.69 12.17 14.17 10.95 13.02C10 12.11 8.39 11.77 7.16 11.77C4.77 11.77 2.1 12.67 1.54 15.62C1.53 15.68 1.53 15.74 1.54 15.8C1.56 15.86 1.58 15.92 1.61 15.97C1.65 16.02 1.69 16.06 1.75 16.09C1.8 16.12 1.86 16.14 1.92 16.15L4.35 16.41C4.46 16.39 4.57 16.34 4.65 16.25C4.72 16.17 4.77 16.06 4.79 15.95C5 14.93 5.85 14.44 6.81 14.44C7.08 14.43 7.35 14.48 7.6 14.6C7.84 14.72 8.06 14.89 8.22 15.11C8.57 15.62 8.53 16.33 8.53 16.93L8.53 17.26C7.07 17.43 5.17 17.53 3.8 18.13C2.99 18.46 2.29 19.03 1.82 19.77C1.34 20.5 1.1 21.37 1.13 22.24C1.13 24.85 2.78 26.16 4.9 26.16C6.68 26.16 7.66 25.74 9.04 24.33C9.41 24.97 9.9 25.54 10.48 26C10.57 26.05 10.68 26.08 10.78 26.07C10.89 26.06 10.99 26.01 11.07 25.94C11.57 25.49 12.49 24.7 13 24.28C13.04 24.23 13.08 24.18 13.11 24.12C13.13 24.06 13.15 24 13.15 23.94C13.15 23.87 13.13 23.81 13.11 23.75C13.08 23.69 13.05 23.64 13 23.6ZM8.53 19.8C8.53 20.78 8.55 21.59 8.06 22.47C7.89 22.8 7.65 23.08 7.34 23.28C7.04 23.48 6.68 23.59 6.32 23.61C5.35 23.61 4.79 22.87 4.79 21.79C4.79 19.65 6.71 19.26 8.53 19.26L8.53 19.8Z" fill="#6D7D93" fill-opacity="1.000000" fill-rule="evenodd"/>
		</g>
	</g>
</svg>
