<svg width="127.000000" height="25.000000" viewBox="0 0 127 25" fill="none" xmlns="http://www.w3.org/2000/svg" xmlns:xlink="http://www.w3.org/1999/xlink">
	<desc>
			Created with Pixso.
	</desc>
	<defs>
		<clipPath id="clip4_1760">
			<rect id="63337525695d8bb6c6b4428e_Grey%20Logo%20Large%20(6).svg" width="126.708214" height="24.809999" transform="translate(-0.669434 -0.220703)" fill="white" fill-opacity="0"/>
		</clipPath>
		<clipPath id="clip4_1759">
			<rect id="63337525695d8bb6c6b4428e_Grey%20Logo%20Large%20(6).svg fill" width="126.750000" height="24.809999" transform="translate(-0.690308 -0.220703)" fill="white" fill-opacity="0"/>
		</clipPath>
	</defs>
	<g clip-path="url(#clip4_1759)">
		<g clip-path="url(#clip4_1760)">
			<mask id="mask4_1764" mask-type="alpha" maskUnits="userSpaceOnUse" x="-0.314697" y="-0.220703" width="126.002930" height="24.809570">
				<path id="Vector" d="M-0.32 -0.23L125.68 -0.23L125.68 24.58L-0.32 24.58L-0.32 -0.23Z" fill="#000000" fill-opacity="1.000000" fill-rule="evenodd"/>
			</mask>
			<g mask="url(#mask4_1764)">
				<path id="Vector" d="M14.3 4.44L6.99 9.1L14.3 13.76L6.99 18.42L-0.32 13.74L6.99 9.07L-0.32 4.44L6.99 -0.23L14.3 4.44ZM6.95 19.92L14.26 15.26L21.57 19.92L14.26 24.58L6.95 19.92ZM14.3 13.74L21.6 9.07L14.3 4.44L21.57 -0.23L28.88 4.44L21.57 9.1L28.88 13.76L21.57 18.42L14.3 13.74Z" fill="#6D7D93" fill-opacity="1.000000" fill-rule="evenodd"/>
			</g>
			<path id="Vector" d="M34.61 4.44L40.52 4.44C44.29 4.44 47.4 6.62 47.4 11.59L47.4 12.64C47.4 17.65 44.49 19.91 40.63 19.91L34.61 19.91L34.61 4.44ZM37.91 7.25L37.91 17.09L40.44 17.09C42.59 17.09 44.02 15.69 44.02 12.58L44.02 11.76C44.02 8.64 42.51 7.25 40.33 7.25L37.91 7.25ZM49.15 7.4L51.8 7.4L52.22 10.31C52.73 8.33 54.01 7.27 56.34 7.27L57.16 7.27L57.16 10.61L55.8 10.61C53.12 10.61 52.46 11.54 52.46 14.19L52.46 19.95L49.2 19.95L49.2 7.4L49.15 7.4ZM57.82 13.92L57.82 13.57C57.82 9.37 60.5 7.08 64.16 7.08C67.89 7.08 70.5 9.37 70.5 13.57L70.5 13.92C70.5 18.04 67.96 20.26 64.16 20.26C60.11 20.22 57.82 18.06 57.82 13.92ZM67.16 13.89L67.16 13.57C67.16 11.24 65.98 9.84 64.12 9.84C62.29 9.84 61.08 11.13 61.08 13.57L61.08 13.89C61.08 16.14 62.25 17.43 64.12 17.43C65.98 17.39 67.16 16.14 67.16 13.89ZM72.21 7.4L74.93 7.4L75.25 9.77C75.9 8.18 77.3 7.08 79.37 7.08C82.55 7.08 84.66 9.37 84.66 13.62L84.66 13.97C84.66 18.09 82.33 20.27 79.37 20.27C77.39 20.27 76.03 19.38 75.36 17.94L75.36 24.28L72.17 24.28L72.21 7.4ZM81.34 13.89L81.34 13.61C81.34 11.11 80.06 9.88 78.35 9.88C76.52 9.88 75.31 11.28 75.31 13.61L75.31 13.85C75.31 16.07 76.48 17.46 78.31 17.46C80.18 17.43 81.34 16.23 81.34 13.89ZM89.48 17.63L89.21 19.92L86.41 19.92L86.41 3.2L89.6 3.2L89.6 9.62C90.3 7.98 91.7 7.08 93.68 7.08C96.68 7.12 98.9 9.19 98.9 13.34L98.9 13.74C98.9 17.89 96.79 20.27 93.6 20.27C91.5 20.22 90.14 19.25 89.48 17.63ZM95.54 13.74L95.54 13.42C95.54 11.13 94.3 9.84 92.55 9.84C90.76 9.84 89.51 11.28 89.51 13.46L89.51 13.74C89.51 16.07 90.72 17.43 92.51 17.43C94.42 17.43 95.54 16.23 95.54 13.74ZM100.29 13.92L100.29 13.57C100.29 9.37 102.98 7.08 106.63 7.08C110.36 7.08 112.97 9.37 112.97 13.57L112.97 13.92C112.97 18.04 110.4 20.26 106.63 20.26C102.59 20.22 100.29 18.06 100.29 13.92ZM109.66 13.89L109.66 13.57C109.66 11.24 108.49 9.84 106.62 9.84C104.79 9.84 103.58 11.13 103.58 13.57L103.58 13.89C103.58 16.14 104.76 17.43 106.62 17.43C108.5 17.39 109.66 16.14 109.66 13.89ZM117.24 13.42L112.85 7.4L116.61 7.4L119.15 11.16L121.72 7.4L125.45 7.4L120.98 13.38L125.68 19.92L121.99 19.92L119.12 15.76L116.32 19.92L112.47 19.92L117.24 13.42Z" fill="#6D7D93" fill-opacity="1.000000" fill-rule="evenodd"/>
		</g>
	</g>
</svg>
