<svg width="170" height="41" viewBox="0 0 170 41" fill="none" xmlns="http://www.w3.org/2000/svg">
<g clip-path="url(#clip0_4_1641)">
<g clip-path="url(#clip1_4_1641)">
<g clip-path="url(#clip2_4_1641)">
<path fill-rule="evenodd" clip-rule="evenodd" d="M10.8245 2.91895V40.4189H0.809692V2.91895H10.8245Z" fill="#443FDE"/>
<path fill-rule="evenodd" clip-rule="evenodd" d="M15.8319 2.91895H37.1134C44.0272 2.91895 49.6319 8.51539 49.6319 15.4189C49.6319 22.3225 44.0272 27.9189 37.1134 27.9189H25.8467V40.4189H15.8319V2.91895ZM25.8467 17.9189H37.1134C38.4962 17.9189 39.6171 16.7996 39.6171 15.4189C39.6171 14.0382 38.4962 12.9189 37.1134 12.9189H25.8467V17.9189Z" fill="#443FDE"/>
<path fill-rule="evenodd" clip-rule="evenodd" d="M87.1875 2.91895V22.2939C87.1875 26.7812 90.8305 30.4189 95.3245 30.4189C99.8185 30.4189 103.462 26.7812 103.462 22.2939V2.91895H113.477V22.2939C113.477 32.3041 105.35 40.4189 95.3245 40.4189C85.2995 40.4189 77.1727 32.3041 77.1727 22.2939V2.91895H87.1875Z" fill="#443FDE"/>
<path fill-rule="evenodd" clip-rule="evenodd" d="M53.3875 20.4189C53.3875 10.7539 61.2341 2.91895 70.9134 2.91895H73.4171V12.9189H70.9134C66.7651 12.9189 63.4023 16.2768 63.4023 20.4189V21.6689C63.4023 32.0242 54.9952 40.4189 44.6245 40.4189H43.3727V30.4189H44.6245C49.4642 30.4189 53.3875 26.5014 53.3875 21.6689V20.4189Z" fill="#443FDE"/>
<path d="M169.81 4.16895C169.81 6.24002 168.129 7.91895 166.054 7.91895C163.98 7.91895 162.299 6.24002 162.299 4.16895C162.299 2.09788 163.98 0.418945 166.054 0.418945C168.129 0.418945 169.81 2.09788 169.81 4.16895Z" fill="#443FDE"/>
<path d="M124.23 40.4188L129.009 20.4369L132.562 32.4581C134.68 39.6279 144.851 39.6279 146.97 32.4581L150.522 20.4369L155.301 40.4188H165.597L158.083 8.99832C156.296 1.52627 145.751 1.24961 143.573 8.61774L139.766 21.5021L135.958 8.61775C133.781 1.24965 123.235 1.52623 121.448 8.99831L113.934 40.4188H124.23Z" fill="#443FDE"/>
</g>
</g>
</g>
<defs>
<clipPath id="clip0_4_1641">
<rect width="169" height="40" fill="white" transform="translate(0.809692 0.418945)"/>
</clipPath>
<clipPath id="clip1_4_1641">
<rect width="169" height="40" fill="white" transform="translate(0.809692 0.418945)"/>
</clipPath>
<clipPath id="clip2_4_1641">
<rect width="169" height="40" fill="white" transform="translate(0.809692 0.418945)"/>
</clipPath>
</defs>
</svg>
