<svg class="banner__brand__img" width="143.000000" height="32.000000" viewBox="0 0 143 32" fill="none" xmlns="http://www.w3.org/2000/svg" xmlns:xlink="http://www.w3.org/1999/xlink">
	<desc>
			Created with Pixso.
	</desc>
	<defs>
		<clipPath id="clip4_864">
			<rect id="63337525695d8b8f23b4428c_Grey%20Logo%20Large%20(2).svg" width="143.000000" height="32.000000" transform="translate(-0.690308 -0.601562)" fill="white" fill-opacity="0"/>
		</clipPath>
	</defs>
	<g clip-path="url(#clip4_864)">
		<mask id="mask4_867" mask-type="alpha" maskUnits="userSpaceOnUse" x="-0.690308" y="-0.601562" width="142.666992" height="32.000000">
			<path id="Vector" d="M-0.7 -0.61L141.97 -0.61L141.97 31.39L-0.7 31.39L-0.7 -0.61Z" fill="#000000" fill-opacity="1.000000" fill-rule="evenodd"/>
		</mask>
		<g mask="url(#mask4_867)">
			<path id="Vector" d="M-0.7 15.39C-0.7 14.87 -0.59 14.36 -0.39 13.88C-0.2 13.4 0.1 12.96 0.46 12.6C0.83 12.23 1.27 11.94 1.75 11.74C2.23 11.54 2.74 11.44 3.26 11.44C3.78 11.44 4.3 11.54 4.78 11.74C5.26 11.94 5.69 12.23 6.06 12.6C6.43 12.96 6.72 13.4 6.92 13.88C7.12 14.36 7.22 14.87 7.22 15.39C7.22 16.44 6.8 17.45 6.06 18.19C5.32 18.93 4.31 19.35 3.26 19.35C2.21 19.35 1.21 18.93 0.46 18.19C-0.28 17.45 -0.7 16.44 -0.7 15.39ZM27.09 19.35C26.04 19.35 25.03 18.94 24.29 18.19C23.55 17.45 23.13 16.45 23.13 15.4C23.13 14.35 23.55 13.34 24.29 12.6C25.03 11.85 26.04 11.44 27.09 11.44C28.14 11.44 29.15 11.85 29.89 12.6C30.63 13.34 31.05 14.34 31.05 15.39C31.05 16.44 30.63 17.45 29.89 18.19C29.15 18.93 28.14 19.35 27.09 19.35L27.09 19.35ZM27.09 -0.44C25.01 -0.44 22.95 -0.03 21.03 0.77C19.11 1.56 17.37 2.73 15.9 4.2C14.43 5.67 13.27 7.41 12.47 9.34C11.68 11.26 11.27 13.32 11.27 15.39C11.27 17.47 11.68 19.53 12.47 21.45C13.27 23.37 14.43 25.12 15.9 26.59C17.37 28.06 19.11 29.22 21.03 30.02C22.95 30.82 25.01 31.23 27.09 31.23C29.17 31.23 31.23 30.82 33.15 30.02C35.07 29.22 36.81 28.06 38.28 26.59C39.75 25.12 40.91 23.37 41.71 21.45C42.5 19.53 42.91 17.47 42.91 15.39C42.91 13.32 42.5 11.26 41.71 9.34C40.91 7.42 39.75 5.67 38.28 4.2C36.81 2.73 35.07 1.56 33.15 0.77C31.23 -0.03 29.17 -0.44 27.09 -0.44ZM140.17 14.17C140.42 14.17 140.57 14.06 140.57 13.85C140.57 13.67 140.47 13.55 140.19 13.55L139.93 13.55L139.93 14.17L140.17 14.17L140.17 14.17ZM139.55 13.23L140.25 13.23C140.64 13.23 140.98 13.39 140.98 13.83C140.98 14.06 140.84 14.27 140.64 14.34L141.06 15.11L140.64 15.11L140.32 14.46L139.94 14.46L139.94 15.11L139.56 15.11L139.56 13.23L139.55 13.23ZM141.6 14.2C141.6 13.33 141 12.7 140.22 12.7C139.44 12.7 138.85 13.33 138.85 14.2C138.85 15.08 139.44 15.68 140.22 15.68C141 15.68 141.6 15.08 141.6 14.2ZM138.48 14.2C138.48 13.11 139.27 12.37 140.22 12.37C141.18 12.37 141.97 13.11 141.97 14.2C141.97 15.28 141.18 16.02 140.22 16.02C139.27 16.02 138.48 15.28 138.48 14.2ZM126.87 21.6C127.11 21.6 127.31 21.4 127.31 21.17L127.31 19.58C127.31 19.35 127.11 19.15 126.87 19.15L126.81 19.15C126.61 19.15 126.42 18.96 126.42 18.77L126.42 9.35C126.42 9.13 126.2 8.92 125.99 8.92L124.41 8.92C124.19 8.92 123.98 9.13 123.98 9.35L123.98 19.78L123.98 20.05C124.01 20.46 124.18 20.84 124.47 21.12C124.75 21.41 125.13 21.58 125.54 21.6L126.87 21.6L126.87 21.6ZM57.26 11.4C59.41 11.4 61.22 13.23 61.22 15.39C61.22 16.44 60.81 17.45 60.07 18.19C59.32 18.94 58.32 19.35 57.27 19.35C56.22 19.35 55.21 18.94 54.47 18.19C53.73 17.45 53.31 16.44 53.31 15.39C53.31 13.19 55.08 11.41 57.26 11.41L57.26 11.4ZM57.26 8.89C55.54 8.9 53.9 9.59 52.69 10.81C51.48 12.03 50.8 13.68 50.8 15.39C50.8 19.02 53.64 21.86 57.26 21.86C58.11 21.87 58.96 21.71 59.75 21.39C60.54 21.07 61.26 20.59 61.86 19.99C62.46 19.39 62.94 18.67 63.26 17.88C63.59 17.09 63.75 16.25 63.74 15.39C63.74 11.81 60.83 8.89 57.26 8.89L57.26 8.89ZM108.79 19.03C108.67 19.36 107.97 19.98 107.17 19.98C106.33 19.98 105.86 19.48 105.86 18.72C105.86 17.91 106.43 17.42 107.46 17.42C108.18 17.42 108.79 17.7 108.79 17.7L108.79 19.03L108.79 19.03ZM107.74 12.36C106.27 12.36 104.84 12.73 104.65 12.81C104.45 12.87 104.28 13.03 104.36 13.36L104.55 14.38C104.59 14.65 104.77 14.86 105.06 14.77C105.59 14.61 106.78 14.43 107.6 14.43C108.56 14.43 108.89 14.98 108.85 16.13C108.85 16.13 108.03 15.88 107.11 15.88C104.83 15.88 103.52 17.11 103.52 18.71C103.52 20.65 104.77 21.8 106.56 21.8C107.97 21.8 108.87 21.18 109.4 20.67L109.4 21.15C109.4 21.39 109.59 21.59 109.82 21.59L110.7 21.59C110.94 21.59 111.13 21.39 111.13 21.16L111.13 16.29C111.13 13.83 110.55 12.37 107.73 12.37L107.74 12.36ZM91.34 12.36C89.61 12.36 88.77 13.29 88.44 13.66L88.44 12.99C88.44 12.76 88.24 12.56 88 12.56L86.98 12.56C86.87 12.56 86.76 12.61 86.68 12.69C86.6 12.77 86.55 12.88 86.55 12.99L86.55 21.16C86.55 21.39 86.77 21.59 86.98 21.59L88.43 21.59C88.86 21.59 88.99 21.49 88.99 21.16L88.99 16C89.12 15.58 89.38 15.22 89.73 14.96C90.09 14.71 90.51 14.58 90.95 14.59C92.04 14.59 92.51 15.31 92.51 16.49L92.51 21.16C92.51 21.39 92.7 21.59 92.94 21.59L94.52 21.59C94.74 21.59 94.95 21.39 94.95 21.16L94.95 16.49C94.95 14.3 94.21 12.36 91.34 12.36ZM69.84 19.57C69.18 19.58 68.53 19.41 67.96 19.07L67.96 15.84C68.13 15.46 68.41 15.13 68.76 14.91C69.12 14.68 69.54 14.57 69.95 14.59C71.36 14.59 72.08 15.82 72.08 17.09C72.08 18.36 71.32 19.57 69.84 19.57ZM70.29 12.36C68.43 12.36 67.4 13.63 67.34 13.71L67.34 12.99C67.34 12.76 67.15 12.56 66.91 12.56L65.95 12.56C65.72 12.56 65.52 12.76 65.52 12.99L65.52 24.83C65.52 25.04 65.72 25.26 65.95 25.26L67.53 25.26C67.75 25.26 67.96 25.04 67.96 24.83L67.96 21.43C68.66 21.67 69.39 21.8 70.13 21.8C72.83 21.8 74.6 19.73 74.6 17.09C74.6 14.35 72.75 12.36 70.29 12.36L70.29 12.36ZM134.69 15.94C134.65 15.06 133.95 14.37 132.95 14.37C131.86 14.37 131.16 15.04 131.03 15.94L134.69 15.94ZM133 12.36C135.35 12.36 137.14 14.1 137.14 16.54C137.14 16.68 137.13 16.99 137.11 17.13C137.09 17.36 136.87 17.54 136.67 17.54L130.89 17.54C130.92 18.65 131.84 19.63 133.14 19.63C134.04 19.63 134.67 19.3 135.08 18.96C135.29 18.79 135.53 18.77 135.66 18.96L136.42 19.98C136.58 20.16 136.6 20.37 136.38 20.57C135.6 21.23 134.49 21.8 133.03 21.8C130.33 21.8 128.46 19.65 128.46 17.07C128.46 14.53 130.33 12.36 133 12.36ZM117.72 19.57C117.3 19.59 116.89 19.48 116.53 19.26C116.18 19.03 115.9 18.71 115.73 18.32L115.73 15.1C115.73 15.1 116.47 14.59 117.61 14.59C119.09 14.59 119.85 15.8 119.85 17.07C119.85 18.34 119.13 19.57 117.72 19.57ZM117.94 12.36C117.04 12.36 116.14 12.58 115.73 12.75L115.73 9.32C115.73 9.1 115.53 8.88 115.3 8.88L113.72 8.88C113.51 8.88 113.29 9.1 113.29 9.32L113.29 21.16C113.29 21.39 113.51 21.59 113.72 21.59L114.4 21.59C114.42 21.59 114.43 21.59 114.44 21.58L114.63 21.58C114.86 21.58 115.06 21.39 115.06 21.15L115.06 20.49L115.07 20.45C115.07 20.45 116.1 21.8 118.07 21.8C120.54 21.8 122.31 19.65 122.31 17.07C122.31 14.44 120.61 12.36 117.94 12.36L117.94 12.36ZM104.12 8.88L94.94 8.88C94.72 8.88 94.57 9.06 94.57 9.25L94.57 10.86C94.57 11.05 94.72 11.23 94.94 11.23L98.25 11.23L98.25 21.21C98.25 21.41 98.43 21.58 98.62 21.58L100.44 21.58C100.64 21.58 100.81 21.41 100.81 21.21L100.81 11.23L104.13 11.23C104.34 11.23 104.49 11.05 104.49 10.86L104.49 9.25C104.49 9.06 104.34 8.88 104.13 8.88L104.12 8.88ZM82.25 15.94C82.21 15.06 81.51 14.37 80.52 14.37C79.42 14.37 78.72 15.04 78.6 15.94L82.25 15.94ZM80.57 12.36C82.92 12.36 84.71 14.1 84.71 16.54C84.71 16.68 84.69 16.99 84.67 17.13C84.65 17.36 84.44 17.54 84.25 17.54L78.47 17.54C78.49 18.65 79.4 19.63 80.71 19.63C81.61 19.63 82.24 19.3 82.65 18.96C82.86 18.79 83.1 18.77 83.23 18.96L83.99 19.98C84.15 20.16 84.17 20.37 83.96 20.57C83.17 21.23 82.06 21.8 80.6 21.8C77.9 21.8 76.03 19.65 76.03 17.07C76.03 14.53 77.9 12.36 80.58 12.36L80.57 12.36Z" fill-opacity="1.000000" fill-rule="evenodd"/>
		</g>
	</g>
</svg>
