<svg width="24.000000" height="24.000000" viewBox="0 0 24 24" fill="none" xmlns="http://www.w3.org/2000/svg" xmlns:xlink="http://www.w3.org/1999/xlink">
	<desc>
			Created with Pixso.
	</desc>
	<defs>
		<clipPath id="clip4_1062">
			<rect id="63337525695d8b73d8b44295_Salary%20Icon.svg" width="24.000000" height="24.000000" transform="translate(-0.860229 -0.510742)" fill="white" fill-opacity="0"/>
		</clipPath>
		<clipPath id="clip4_1061">
			<rect id="63337525695d8b73d8b44295_Salary%20Icon.svg fill" width="24.000000" height="24.000000" transform="translate(-0.860229 -0.510742)" fill="white" fill-opacity="0"/>
		</clipPath>
	</defs>
	<g clip-path="url(#clip4_1061)">
		<g clip-path="url(#clip4_1062)">
			<path id="Vector" d="M5.13 12.48L5.13 8.48L13.13 8.48L13.13 " stroke="#96A0B5" stroke-opacity="1.000000" stroke-width="1.500000" stroke-linejoin="round" stroke-linecap="round"/>
			<path id="Vector" d="M13.13 8.48L14.13 8.48L14.13 4.48L6.13 4.48L6.13 " stroke="#96A0B5" stroke-opacity="1.000000" stroke-width="1.500000" stroke-linejoin="round" stroke-linecap="round"/>
			<path id="Vector" d="M16.96 19.31C15.4 20.87 12.87 20.87 11.31 19.31C9.74 17.75 9.74 15.22 11.31 13.66C12.87 12.09 15.4 12.09 16.96 13.66C18.53 15.22 18.53 17.75 16.96 19.31Z" stroke="#96A0B5" stroke-opacity="1.000000" stroke-width="1.500000" stroke-linejoin="round"/>
			<path id="Vector" d="M5.13 16.48L5.13 20.48L14.13 " stroke="#96A0B5" stroke-opacity="1.000000" stroke-width="1.500000" stroke-linejoin="round" stroke-linecap="round"/>
			<path id="Vector" d="M14.13 12.48L4.13 12.48L4.13 16.48L10.13 " stroke="#96A0B5" stroke-opacity="1.000000" stroke-width="1.500000" stroke-linejoin="round" stroke-linecap="round"/>
		</g>
	</g>
</svg>
