<svg class="banner__brand__img" width="106.000000" height="30.000000" viewBox="0 0 106 30" fill="none" xmlns="http://www.w3.org/2000/svg" xmlns:xlink="http://www.w3.org/1999/xlink">
	<desc>
			Created with Pixso.
	</desc>
	<defs>
		<clipPath id="clip4_1740">
			<rect id="63337525695d8b1160b4428a_Grey%20Logo%20Large%20(1).svg" width="106.000000" height="30.000000" transform="translate(-0.310303 -0.220703)" fill="white" fill-opacity="0"/>
		</clipPath>
		<clipPath id="clip4_1739">
			<rect id="63337525695d8b1160b4428a_Grey%20Logo%20Large%20(1).svg fill" width="106.000000" height="30.000000" transform="translate(-0.310303 -0.220703)" fill="white" fill-opacity="0"/>
		</clipPath>
	</defs>
	<g clip-path="url(#clip4_1739)">
		<g clip-path="url(#clip4_1740)">
			<mask id="mask4_1745" mask-type="alpha" maskUnits="userSpaceOnUse" x="0.356689" y="-0.220703" width="104.765991" height="30.000000">
				<path id="Vector" d="M0.35 -0.23L105.12 -0.23L105.12 29.77L0.35 29.77L0.35 -0.23Z" fill="#000000" fill-opacity="1.000000" fill-rule="evenodd"/>
			</mask>
			<g mask="url(#mask4_1745)">
				<path id="Vector" d="M36.52 16.39C35.63 15.9 35.16 15.5 35.16 14.94C35.16 14.21 35.79 13.77 36.8 13.77C37.97 13.77 39 14.26 39 14.26L39.82 11.75C39.82 11.75 39.07 11.16 36.84 11.16C33.75 11.16 31.59 12.95 31.59 15.43C31.59 16.84 32.6 17.91 33.94 18.69C35.02 19.3 35.39 19.74 35.39 20.38C35.39 21.06 34.85 21.59 33.84 21.59C32.34 21.59 30.94 20.82 30.94 20.82L30.07 23.33C30.07 23.33 31.38 24.2 33.56 24.2C36.75 24.2 39.02 22.63 39.02 19.81C39.07 18.27 37.9 17.19 36.52 16.39ZM49.22 11.12C47.65 11.12 46.43 11.87 45.47 12.99L45.42 12.97L46.78 5.84L43.24 5.84L39.8 23.96L43.34 23.96L44.51 17.77C44.98 15.43 46.17 14 47.3 14C48.09 14 48.4 14.54 48.4 15.31C48.4 15.81 48.35 16.39 48.23 16.88L46.9 23.99L50.44 23.99L51.82 16.67C51.98 15.9 52.08 14.99 52.08 14.35C52.1 12.31 51.05 11.12 49.22 11.12ZM60.12 11.12C55.85 11.12 53.02 14.96 53.02 19.25C53.02 21.99 54.7 24.22 57.89 24.22C62.09 24.22 64.9 20.47 64.9 16.09C64.92 13.53 63.45 11.12 60.12 11.12ZM58.38 21.48C57.16 21.48 56.67 20.45 56.67 19.16C56.67 17.12 57.73 13.81 59.65 13.81C60.91 13.81 61.31 14.89 61.31 15.95C61.31 18.15 60.26 21.48 58.38 21.48ZM73.99 11.12C71.6 11.12 70.24 13.23 70.24 13.23L70.2 13.23L70.41 11.33L67.27 11.33C67.1 12.62 66.82 14.56 66.54 16.04L64.08 29.02L67.62 29.02L68.6 23.77L68.67 23.77C68.67 23.77 69.4 24.24 70.76 24.24C74.93 24.24 77.65 19.98 77.65 15.66C77.65 13.25 76.59 11.12 73.99 11.12ZM70.62 21.55C69.7 21.55 69.16 21.03 69.16 21.03L69.75 17.73C70.17 15.52 71.32 14.05 72.54 14.05C73.62 14.05 73.95 15.06 73.95 15.99C73.95 18.27 72.59 21.55 70.62 21.55ZM82.71 6.01C81.59 6.01 80.67 6.9 80.67 8.07C80.67 9.13 81.33 9.85 82.34 9.85L82.38 9.85C83.48 9.85 84.45 9.1 84.47 7.79C84.49 6.76 83.79 6.01 82.71 6.01Z" fill-opacity="1.000000" fill-rule="evenodd"/>
				<path id="Vector" d="M77.74 23.96L81.3 23.96L83.72 11.4L80.13 11.4L77.74 23.96Z" fill-opacity="1.000000" fill-rule="evenodd"/>
				<path id="Vector" d="M92.72 11.35L90.26 11.35L90.38 10.77C90.59 9.55 91.29 8.47 92.48 8.47C93.12 8.47 93.61 8.66 93.61 8.66L94.31 5.89C94.31 5.89 93.7 5.59 92.39 5.59C91.13 5.59 89.88 5.94 88.92 6.76C87.7 7.79 87.14 9.27 86.86 10.77L86.77 11.35L85.13 11.35L84.61 14.02L86.25 14.02L84.38 23.94L87.91 23.94L89.79 14.02L92.23 14.02L92.72 11.35ZM101.25 11.4C101.25 11.4 99.02 16.98 98.04 20.02L97.99 20.02C97.92 19.04 97.13 11.4 97.13 11.4L93.4 11.4L95.53 22.93C95.58 23.19 95.55 23.35 95.46 23.52C95.04 24.31 94.36 25.09 93.54 25.65C92.88 26.14 92.13 26.45 91.55 26.66L92.53 29.66C93.26 29.49 94.73 28.91 96 27.74C97.62 26.21 99.12 23.89 100.64 20.7L104.98 11.4L101.25 11.4ZM17.23 28.91L25.99 27.01C25.99 27.01 22.83 5.61 22.8 5.47C22.78 5.33 22.66 5.24 22.55 5.24C22.43 5.24 20.2 5.07 20.2 5.07C20.2 5.07 18.66 3.52 18.47 3.36C18.42 3.31 18.38 3.29 18.33 3.27L17.23 28.91ZM17.95 3.22C17.93 3.22 17.88 3.24 17.86 3.24C17.84 3.24 17.51 3.34 16.99 3.5C16.48 2 15.56 0.62 13.95 0.62L13.8 0.62C13.34 0.03 12.77 -0.23 12.28 -0.23C8.51 -0.23 6.7 4.49 6.14 6.88C4.69 7.32 3.63 7.65 3.52 7.7C2.7 7.95 2.67 7.98 2.58 8.75C2.48 9.31 0.35 25.84 0.35 25.84L16.83 28.93L17.95 3.22ZM13.66 4.37L13.66 4.53C12.75 4.81 11.74 5.12 10.76 5.42C11.32 3.27 12.38 2.21 13.29 1.81C13.52 2.42 13.66 3.24 13.66 4.37ZM12.16 0.78C12.33 0.78 12.49 0.83 12.66 0.95C11.46 1.51 10.15 2.94 9.61 5.8C8.81 6.06 8.04 6.29 7.31 6.5C7.95 4.32 9.47 0.78 12.16 0.78ZM12.82 13.51C12.82 13.51 11.84 12.99 10.66 12.99C8.91 12.99 8.84 14.09 8.84 14.38C8.84 15.88 12.77 16.46 12.77 20C12.77 22.79 11.02 24.57 8.63 24.57C5.77 24.57 4.31 22.79 4.31 22.79L5.09 20.26C5.09 20.26 6.59 21.55 7.85 21.55C8.67 21.55 9.02 20.89 9.02 20.42C9.02 18.45 5.79 18.36 5.79 15.13C5.79 12.41 7.73 9.76 11.7 9.76C13.22 9.76 13.97 10.2 13.97 10.2L12.82 13.51ZM14.32 1.65C15.16 1.74 15.7 2.7 16.05 3.78C15.63 3.92 15.16 4.06 14.65 4.23L14.65 3.92C14.65 3.01 14.53 2.26 14.32 1.65Z" fill-opacity="1.000000" fill-rule="evenodd"/>
			</g>
		</g>
	</g>
</svg>
